<?xml version="1.0" encoding="UTF-8" standalone="no"?>
<svg
   width="129"
   height="59"
   version="1.1"
   id="svg51"
   sodipodi:docname="barcode.svg"
   inkscape:version="1.3.2 (091e20e, 2023-11-25)"
   xmlns:inkscape="http://www.inkscape.org/namespaces/inkscape"
   xmlns:sodipodi="http://sodipodi.sourceforge.net/DTD/sodipodi-0.dtd"
   xmlns="http://www.w3.org/2000/svg"
   xmlns:svg="http://www.w3.org/2000/svg">
  <defs
     id="defs51" />
  <sodipodi:namedview
     id="namedview51"
     pagecolor="#505050"
     bordercolor="#eeeeee"
     borderopacity="1"
     inkscape:showpageshadow="0"
     inkscape:pageopacity="0"
     inkscape:pagecheckerboard="0"
     inkscape:deskcolor="#505050"
     inkscape:zoom="4"
     inkscape:cx="64.375"
     inkscape:cy="29.5"
     inkscape:window-width="1360"
     inkscape:window-height="451"
     inkscape:window-x="0"
     inkscape:window-y="37"
     inkscape:window-maximized="0"
     inkscape:current-layer="barcode" />
  <desc
     id="desc1">*/ECL0SM2*
   </desc>
  <g
     id="barcode"
     fill="#000000">
    <rect
       x="0"
       y="0"
       width="129"
       height="59"
       fill="#FFFFFF"
       id="rect1" />
    <rect
       x="0.00"
       y="0.00"
       width="1.00"
       height="50.00"
       id="rect2" />
    <rect
       x="3.00"
       y="0.00"
       width="1.00"
       height="50.00"
       id="rect3" />
    <rect
       x="5.00"
       y="0.00"
       width="2.00"
       height="50.00"
       id="rect4" />
    <rect
       x="8.00"
       y="0.00"
       width="2.00"
       height="50.00"
       id="rect5" />
    <rect
       x="11.00"
       y="0.00"
       width="1.00"
       height="50.00"
       id="rect6" />
    <rect
       x="13.00"
       y="0.00"
       width="1.00"
       height="50.00"
       id="rect7" />
    <rect
       x="16.00"
       y="0.00"
       width="1.00"
       height="50.00"
       id="rect8" />
    <rect
       x="19.00"
       y="0.00"
       width="1.00"
       height="50.00"
       id="rect9" />
    <rect
       x="21.00"
       y="0.00"
       width="1.00"
       height="50.00"
       id="rect10" />
    <rect
       x="24.00"
       y="0.00"
       width="1.00"
       height="50.00"
       id="rect11" />
    <rect
       x="26.00"
       y="0.00"
       width="2.00"
       height="50.00"
       id="rect12" />
    <rect
       x="29.00"
       y="0.00"
       width="1.00"
       height="50.00"
       id="rect13" />
    <rect
       x="31.00"
       y="0.00"
       width="2.00"
       height="50.00"
       id="rect14" />
    <rect
       x="35.00"
       y="0.00"
       width="1.00"
       height="50.00"
       id="rect15" />
    <rect
       x="37.00"
       y="0.00"
       width="1.00"
       height="50.00"
       id="rect16" />
    <rect
       x="39.00"
       y="0.00"
       width="2.00"
       height="50.00"
       id="rect17" />
    <rect
       x="42.00"
       y="0.00"
       width="2.00"
       height="50.00"
       id="rect18" />
    <rect
       x="45.00"
       y="0.00"
       width="1.00"
       height="50.00"
       id="rect19" />
    <rect
       x="48.00"
       y="0.00"
       width="1.00"
       height="50.00"
       id="rect20" />
    <rect
       x="50.00"
       y="0.00"
       width="1.00"
       height="50.00"
       id="rect21" />
    <rect
       x="52.00"
       y="0.00"
       width="1.00"
       height="50.00"
       id="rect22" />
    <rect
       x="54.00"
       y="0.00"
       width="2.00"
       height="50.00"
       id="rect23" />
    <rect
       x="57.00"
       y="0.00"
       width="1.00"
       height="50.00"
       id="rect24" />
    <rect
       x="59.00"
       y="0.00"
       width="1.00"
       height="50.00"
       id="rect25" />
    <rect
       x="62.00"
       y="0.00"
       width="2.00"
       height="50.00"
       id="rect26" />
    <rect
       x="65.00"
       y="0.00"
       width="1.00"
       height="50.00"
       id="rect27" />
    <rect
       x="67.00"
       y="0.00"
       width="1.00"
       height="50.00"
       id="rect28" />
    <rect
       x="70.00"
       y="0.00"
       width="2.00"
       height="50.00"
       id="rect29" />
    <rect
       x="73.00"
       y="0.00"
       width="2.00"
       height="50.00"
       id="rect30" />
    <rect
       x="76.00"
       y="0.00"
       width="1.00"
       height="50.00"
       id="rect31" />
    <rect
       x="78.00"
       y="0.00"
       width="1.00"
       height="50.00"
       id="rect32" />
    <rect
       x="80.00"
       y="0.00"
       width="2.00"
       height="50.00"
       id="rect33" />
    <rect
       x="83.00"
       y="0.00"
       width="1.00"
       height="50.00"
       id="rect34" />
    <rect
       x="85.00"
       y="0.00"
       width="2.00"
       height="50.00"
       id="rect35" />
    <rect
       x="89.00"
       y="0.00"
       width="1.00"
       height="50.00"
       id="rect36" />
    <rect
       x="91.00"
       y="0.00"
       width="2.00"
       height="50.00"
       id="rect37" />
    <rect
       x="94.00"
       y="0.00"
       width="2.00"
       height="50.00"
       id="rect38" />
    <rect
       x="97.00"
       y="0.00"
       width="1.00"
       height="50.00"
       id="rect39" />
    <rect
       x="99.00"
       y="0.00"
       width="1.00"
       height="50.00"
       id="rect40" />
    <rect
       x="102.00"
       y="0.00"
       width="1.00"
       height="50.00"
       id="rect41" />
    <rect
       x="104.00"
       y="0.00"
       width="1.00"
       height="50.00"
       id="rect42" />
    <rect
       x="106.00"
       y="0.00"
       width="2.00"
       height="50.00"
       id="rect43" />
    <rect
       x="110.00"
       y="0.00"
       width="1.00"
       height="50.00"
       id="rect44" />
    <rect
       x="112.00"
       y="0.00"
       width="1.00"
       height="50.00"
       id="rect45" />
    <rect
       x="114.00"
       y="0.00"
       width="2.00"
       height="50.00"
       id="rect46" />
    <rect
       x="117.00"
       y="0.00"
       width="1.00"
       height="50.00"
       id="rect47" />
    <rect
       x="120.00"
       y="0.00"
       width="1.00"
       height="50.00"
       id="rect48" />
    <rect
       x="122.00"
       y="0.00"
       width="2.00"
       height="50.00"
       id="rect49" />
    <rect
       x="125.00"
       y="0.00"
       width="2.00"
       height="50.00"
       id="rect50" />
    <rect
       x="128.00"
       y="0.00"
       width="1.00"
       height="50.00"
       id="rect51" />
  </g>
</svg>
